<svg id="Capa_1" data-name="Capa 1" xmlns="http://www.w3.org/2000/svg" viewBox="0 0 60 60"><defs><style>.cls-1{fill:#5f4b8b;}</style></defs><title>logo-web</title><rect class="cls-1" x="20.54" y="2.69" width="18.93" height="18.93" rx="2.97" ry="2.97" transform="translate(0.19 24.77) rotate(-45)"/><path class="cls-1" d="M14.26,18.72,25.61,30.07a6.21,6.21,0,0,0,8.79,0L45.74,18.72a3,3,0,0,1,4.21,0l9.18,9.18a3,3,0,0,1,0,4.21l-9.18,9.18a3,3,0,0,1-4.21,0L41,36.56a3,3,0,0,0-4.21,0l-.26.26a3,3,0,0,0,0,4.21l4.72,4.72a3,3,0,0,1,0,4.21L32.1,59.13a3,3,0,0,1-4.21,0l-9.18-9.18a3,3,0,0,1,0-4.21L23.44,41a3,3,0,0,0,0-4.21l-.26-.26a3,3,0,0,0-4.21,0l-4.72,4.72a3,3,0,0,1-4.21,0L.87,32.1a3,3,0,0,1,0-4.21l9.18-9.18A3,3,0,0,1,14.26,18.72Z"/></svg>